<?xml version="1.0" standalone="no"?>
<!DOCTYPE svg PUBLIC "-//W3C//DTD SVG 20010904//EN"
 "http://www.w3.org/TR/2001/REC-SVG-20010904/DTD/svg10.dtd">
<svg version="1.0" xmlns="http://www.w3.org/2000/svg"
 width="740.000000pt" height="740.000000pt" viewBox="0 0 740.000000 740.000000"
 preserveAspectRatio="xMidYMid meet">
<metadata>
Created by potrace 1.11, written by Peter Selinger 2001-2013
</metadata>
<g transform="translate(0.000000,740.000000) scale(0.100000,-0.100000)"
fill="#000000" stroke="none">
<path d="M2248 7395 c-2 -1 -23 -5 -48 -8 -213 -27 -429 -113 -614 -245 -109
-77 -287 -255 -378 -378 -240 -323 -428 -761 -553 -1284 -18 -72 -72 -344 -79
-395 -4 -23 -8 -50 -10 -62 -3 -12 -7 -43 -11 -70 -4 -26 -8 -58 -10 -71 -2
-13 -7 -53 -11 -90 -3 -37 -8 -74 -9 -83 -26 -140 -26 -968 0 -1130 2 -13 6
-55 10 -94 6 -64 20 -174 30 -235 2 -14 7 -45 10 -70 11 -80 63 -322 100 -470
20 -80 39 -158 42 -174 7 -41 108 -392 150 -521 94 -290 182 -510 300 -755 83
-171 218 -412 235 -418 4 -2 8 -8 8 -14 0 -12 130 -192 186 -258 85 -99 234
-241 323 -308 138 -104 351 -204 495 -233 150 -31 362 -32 571 -4 222 30 489
126 685 248 191 119 427 333 555 502 33 44 63 82 66 85 14 11 169 253 218 339
50 88 191 365 191 375 0 2 17 42 39 88 41 87 67 148 69 161 1 4 26 56 56 115
81 162 111 191 169 161 46 -24 94 -90 197 -274 118 -209 162 -274 255 -373 65
-70 148 -124 222 -147 62 -20 192 -20 268 0 225 58 477 259 671 536 155 221
211 369 251 665 10 77 10 777 0 874 -5 41 -10 98 -13 125 -3 28 -7 61 -9 75
-2 14 -7 50 -10 80 -6 47 -57 316 -70 360 -33 122 -93 255 -131 291 -46 43
-49 27 -50 -329 -1 -301 -5 -421 -19 -516 -3 -20 -7 -52 -10 -71 -4 -29 -17
-91 -29 -140 -14 -56 -24 -81 -59 -152 -80 -165 -218 -258 -367 -246 -57 4
-171 38 -231 69 -206 104 -472 416 -567 664 -20 52 -48 144 -56 186 -3 11 -9
39 -14 64 -6 25 -13 72 -17 105 -3 33 -8 74 -10 90 -5 37 -6 359 -1 400 13
114 17 145 22 166 2 13 6 40 9 59 9 70 64 267 100 365 57 154 130 279 206 356
37 37 113 63 184 64 149 0 273 -97 430 -338 279 -428 316 -476 356 -451 25 15
-4 187 -59 359 -40 124 -152 376 -211 475 -119 200 -212 338 -291 435 -68 82
-233 238 -295 278 -108 69 -157 82 -310 81 -114 0 -138 -3 -195 -25 -207 -79
-355 -256 -486 -581 -35 -88 -105 -301 -119 -367 -2 -9 -24 -103 -49 -210 -25
-106 -48 -203 -50 -215 -30 -157 -146 -700 -191 -896 -86 -374 -200 -699 -334
-954 -215 -409 -402 -622 -653 -741 -126 -59 -213 -78 -383 -81 -82 -2 -170 1
-195 6 -25 4 -61 11 -80 14 -49 8 -141 32 -235 62 -185 59 -322 151 -470 315
-242 265 -448 750 -529 1239 -3 19 -8 44 -10 56 -14 70 -21 206 -21 394 1 284
10 369 81 727 13 69 80 284 120 385 134 345 314 556 594 697 55 28 100 48 100
44 0 -3 6 -1 13 5 14 12 156 47 242 61 89 14 319 11 405 -4 413 -76 808 -359
1192 -855 68 -88 204 -288 214 -315 12 -30 22 -14 30 48 4 34 8 64 9 67 1 5
12 79 20 135 2 17 7 48 10 70 3 22 9 65 15 95 5 30 11 73 14 95 3 22 8 56 11
76 5 29 -4 55 -53 155 -187 378 -450 751 -715 1014 -88 88 -184 174 -221 199
-11 8 -23 18 -26 22 -18 25 -256 172 -355 220 -233 111 -428 156 -677 157 -81
0 -148 -1 -150 -3z"/>
</g>
</svg>
